<?xml version="1.0" encoding="UTF-8" standalone="no"?><!-- Generator: Gravit.io --><svg xmlns="http://www.w3.org/2000/svg" xmlns:xlink="http://www.w3.org/1999/xlink" style="isolation:isolate" viewBox="0 0 24 24" width="24pt" height="24pt"><defs><clipPath id="_clipPath_MTVmxga8PCJs2kCg2lb7zobJpGXkghgq"><rect width="24" height="24"/></clipPath></defs><g clip-path="url(#_clipPath_MTVmxga8PCJs2kCg2lb7zobJpGXkghgq)"><path d=" M 14 5.5 C 14 3.568 15.568 2 17.5 2 C 19.432 2 21 3.568 21 5.5 C 21 7.432 19.432 9 17.5 9 C 15.568 9 14 7.432 14 5.5 L 14 5.5 Z  M 2 0 L 22 0 C 23.104 0 24 0.896 24 2 L 24 22 C 24 23.104 23.104 24 22 24 L 2 24 C 0.896 24 0 23.104 0 22 L 0 2 C 0 0.896 0.896 0 2 0 L 2 0 Z  M 4 22 L 20 22 C 21.104 22 21.599 21.198 21.106 20.211 L 17.894 13.789 C 17.401 12.802 16.462 12.717 15.8 13.6 L 14.6 15.2 C 14.269 15.642 13.782 15.608 13.514 15.126 L 9.971 8.748 C 9.435 7.783 8.621 7.812 8.154 8.812 L 2.846 20.188 C 2.379 21.188 2.896 22 4 22 Z " fill-rule="evenodd" fill="white"/></g></svg>