<?xml version="1.0" encoding="UTF-8" standalone="no"?><!-- Generator: Gravit.io --><svg xmlns="http://www.w3.org/2000/svg" xmlns:xlink="http://www.w3.org/1999/xlink" style="isolation:isolate" viewBox="0 0 120 120" width="120pt" height="120pt"><defs><clipPath id="_clipPath_uxfWAYMu70I1pu85uZOF01MClRPjYJ0z"><rect width="120" height="120"/></clipPath></defs><g clip-path="url(#_clipPath_uxfWAYMu70I1pu85uZOF01MClRPjYJ0z)"><path d=" M 56.724 114.858 L 35.427 102.563 L 14.13 90.267 C 12.321 89.223 10.853 86.68 10.853 84.592 L 10.853 60 L 10.853 35.408 C 10.853 33.32 12.321 30.777 14.13 29.733 L 35.427 17.438 L 56.724 5.142 C 58.532 4.098 61.468 4.098 63.276 5.142 L 84.573 17.438 L 105.87 29.733 C 107.679 30.777 109.147 33.32 109.147 35.408 L 109.147 60 L 109.147 84.592 C 109.147 86.68 107.679 89.223 105.87 90.267 L 84.573 102.562 L 63.276 114.858 C 61.468 115.902 58.532 115.902 56.724 114.858 Z " fill="rgb(106,57,55)"/></g></svg>