<?xml version="1.0" encoding="UTF-8" standalone="no"?><!-- Generator: Gravit.io --><svg xmlns="http://www.w3.org/2000/svg" xmlns:xlink="http://www.w3.org/1999/xlink" style="isolation:isolate" viewBox="0 0 120 120" width="120pt" height="120pt"><defs><clipPath id="_clipPath_0pVWc2F8KNxhaGay7NQfMnystQWjRmh2"><rect width="120" height="120"/></clipPath></defs><g clip-path="url(#_clipPath_0pVWc2F8KNxhaGay7NQfMnystQWjRmh2)"><path d=" M 114.029 46.986 L 88.579 26.714 L 63.182 7.374 C 61.426 6.036 58.574 6.036 56.818 7.374 L 31.421 26.714 L 5.971 46.986 C 4.244 48.362 3.444 51.166 4.186 53.246 L 13.758 80.075 L 23.438 109.867 C 24.121 111.967 26.467 113.672 28.674 113.672 L 60 113.672 L 91.326 113.672 C 93.533 113.672 95.879 111.967 96.562 109.867 L 106.242 80.075 L 115.814 53.246 C 116.556 51.166 115.756 48.362 114.029 46.986 Z " fill="rgb(197,136,130)"/><circle vector-effect="non-scaling-stroke" cx="60" cy="55.99999999999994" r="6" fill="rgb(255,255,255)"/><circle vector-effect="non-scaling-stroke" cx="49.99999999999994" cy="70" r="6" fill="rgb(255,255,255)"/><circle vector-effect="non-scaling-stroke" cx="69.99999999999989" cy="70" r="6" fill="rgb(255,255,255)"/></g></svg>