<?xml version="1.0" encoding="UTF-8" standalone="no"?><!-- Generator: Gravit.io --><svg xmlns="http://www.w3.org/2000/svg" xmlns:xlink="http://www.w3.org/1999/xlink" style="isolation:isolate" viewBox="0 0 120 120" width="120pt" height="120pt"><defs><clipPath id="_clipPath_jwczBCQrjlVZUf4R5ENhaSjFe2f9OF7c"><rect width="120" height="120"/></clipPath></defs><g clip-path="url(#_clipPath_jwczBCQrjlVZUf4R5ENhaSjFe2f9OF7c)"><rect width="120" height="120" style="fill:rgb(234,210,172)"/><path d=" M 68 27 C 60.659 40.444 45.003 42.165 32.473 48.43 C 23.45 54.746 23.038 68.128 23.697 76.037 C 24.677 87.797 43.632 89.583 50.186 90.239 C 60.957 91.316 72.506 94.82 81.462 91.834 C 90.456 88.836 101.202 80.08 100.132 70.451 C 98.484 55.617 102.013 53.796 108.27 42.845 C 114.325 32.25 116.852 25.098 108.27 16.516 C 102.496 10.742 85.631 7.839 79.228 9.973 C 71.996 12.384 73.955 22.823 68 27 Z " fill="rgb(133,220,255)" vector-effect="non-scaling-stroke" stroke-width="3" stroke="rgb(0,117,162)" stroke-linejoin="miter" stroke-linecap="square" stroke-miterlimit="3"/><path d=" M 25 17 C 25 16.448 25.448 16 26 16 C 26.552 16 27 16.448 27 17 C 27 17.552 26.552 18 26 18 C 25.448 18 25 17.552 25 17 Z " fill="rgb(223,146,142)"/><path d=" M 21 17 C 21 16.448 21.448 16 22 16 C 22.552 16 23 16.448 23 17 C 23 17.552 22.552 18 22 18 C 21.448 18 21 17.552 21 17 Z " fill="rgb(223,146,142)"/><path d=" M 26 15 C 26 14.448 26.448 14 27 14 C 27.552 14 28 14.448 28 15 C 28 15.552 27.552 16 27 16 C 26.448 16 26 15.552 26 15 Z " fill="rgb(223,146,142)"/><path d=" M 25 20 C 25 19.448 25.448 19 26 19 C 26.552 19 27 19.448 27 20 C 27 20.552 26.552 21 26 21 C 25.448 21 25 20.552 25 20 Z " fill="rgb(223,146,142)"/><path d=" M 28 17 C 28 16.448 28.448 16 29 16 C 29.552 16 30 16.448 30 17 C 30 17.552 29.552 18 29 18 C 28.448 18 28 17.552 28 17 Z " fill="rgb(223,146,142)"/><path d=" M 4 71 C 4 70.448 4.448 70 5 70 C 5.552 70 6 70.448 6 71 C 6 71.552 5.552 72 5 72 C 4.448 72 4 71.552 4 71 Z " fill="rgb(223,146,142)"/><path d=" M 0 77 C 0 76.448 0.448 76 1 76 C 1.552 76 2 76.448 2 77 C 2 77.552 1.552 78 1 78 C 0.448 78 0 77.552 0 77 Z " fill="rgb(223,146,142)"/><path d=" M 5 75 C 5 74.448 5.448 74 6 74 C 6.552 74 7 74.448 7 75 C 7 75.552 6.552 76 6 76 C 5.448 76 5 75.552 5 75 Z " fill="rgb(223,146,142)"/><path d=" M 4 80 C 4 79.448 4.448 79 5 79 C 5.552 79 6 79.448 6 80 C 6 80.552 5.552 81 5 81 C 4.448 81 4 80.552 4 80 Z " fill="rgb(223,146,142)"/><path d=" M 7 73 C 7 72.448 7.448 72 8 72 C 8.552 72 9 72.448 9 73 C 9 73.552 8.552 74 8 74 C 7.448 74 7 73.552 7 73 Z " fill="rgb(223,146,142)"/><path d=" M 114.77 4 C 114.77 3.448 115.218 3 115.77 3 C 116.322 3 116.77 3.448 116.77 4 C 116.77 4.552 116.322 5 115.77 5 C 115.218 5 114.77 4.552 114.77 4 Z " fill="rgb(223,146,142)"/><path d=" M 107.77 4 C 107.77 3.448 108.218 3 108.77 3 C 109.322 3 109.77 3.448 109.77 4 C 109.77 4.552 109.322 5 108.77 5 C 108.218 5 107.77 4.552 107.77 4 Z " fill="rgb(223,146,142)"/><path d=" M 110.77 2 C 110.77 1.448 111.218 1 111.77 1 C 112.322 1 112.77 1.448 112.77 2 C 112.77 2.552 112.322 3 111.77 3 C 111.218 3 110.77 2.552 110.77 2 Z " fill="rgb(223,146,142)"/><path d=" M 114.77 10 C 114.77 9.448 115.218 9 115.77 9 C 116.322 9 116.77 9.448 116.77 10 C 116.77 10.552 116.322 11 115.77 11 C 115.218 11 114.77 10.552 114.77 10 Z " fill="rgb(223,146,142)"/><path d=" M 117.77 4 C 117.77 3.448 118.218 3 118.77 3 C 119.322 3 119.77 3.448 119.77 4 C 119.77 4.552 119.322 5 118.77 5 C 118.218 5 117.77 4.552 117.77 4 Z " fill="rgb(223,146,142)"/><path d=" M 36 56 C 37.061 73.336 31.974 89.722 27.579 106.204 L 27.236 107.232" fill="none" vector-effect="non-scaling-stroke" stroke-width="5" stroke="rgb(106,57,55)" stroke-linejoin="miter" stroke-linecap="square" stroke-miterlimit="3"/><path d=" M 35 53 C 23.06 55.041 12.234 58.507 7.708 70.575 C 8.421 72.713 16.633 71.54 17.472 71.431 C 21.999 70.841 37.09 65.722 38.542 60.639 C 39.379 57.711 37.486 57.285 35 53 Z " fill="rgb(104,216,155)" vector-effect="non-scaling-stroke" stroke-width="5" stroke="rgb(79,157,105)" stroke-linejoin="miter" stroke-linecap="square" stroke-miterlimit="3"/><path d=" M 36 53 C 49.11 50.546 62.551 54.202 58.241 69.718 C 52.839 89.526 54.905 74.239 49.334 67.149 C 47.466 64.771 46.053 62.853 43.338 61.496 L 42.31 60.982" fill="rgb(104,216,155)" vector-effect="non-scaling-stroke" stroke-width="5" stroke="rgb(79,157,105)" stroke-linejoin="miter" stroke-linecap="square" stroke-miterlimit="3"/><path d=" M 38.542 62 C 35.893 68.526 30.38 82.924 37 85.82 C 44.209 80.774 43.493 69.748 38.542 62 Z " fill="rgb(104,216,155)" vector-effect="non-scaling-stroke" stroke-width="5" stroke="rgb(79,157,105)" stroke-linejoin="miter" stroke-linecap="square" stroke-miterlimit="3"/><path d=" M 52 48 C 59.107 42.419 56.644 47.364 61.838 47.364 C 66.116 47.364 62.82 41.21 67.662 47.021 C 67.973 47.393 68.257 47.832 68.69 48.049 C 69.102 48.255 69.604 48.277 70.061 48.22 C 70.545 48.16 71.013 47.957 71.431 47.706 C 71.431 47.706 73.829 45.651 73.829 45.651 L 74.857 44.966" fill="none" vector-effect="non-scaling-stroke" stroke-width="1" stroke="rgb(0,117,162)" stroke-linejoin="miter" stroke-linecap="square" stroke-miterlimit="3"/><path d=" M 64 81 C 64 81 71.774 79.396 71.774 79.396 C 78.657 74.608 72.688 75.971 79.482 78.369 C 82.755 79.524 84.913 76.816 89.075 77.683 L 90.274 77.169 L 91.302 76.827" fill="none" vector-effect="non-scaling-stroke" stroke-width="1" stroke="rgb(0,117,162)" stroke-linejoin="miter" stroke-linecap="square" stroke-miterlimit="3"/><path d=" M 83 28 C 80.719 28.093 84.679 23.708 85.991 21.84 C 85.991 21.84 90.102 27.493 90.102 27.493 C 90.505 27.522 90.921 27.458 91.302 27.322 C 91.735 27.167 92.147 26.931 92.501 26.637 C 94.138 25.272 95.2 23.109 96.269 21.327" fill="none" vector-effect="non-scaling-stroke" stroke-width="1" stroke="rgb(0,117,162)" stroke-linejoin="miter" stroke-linecap="square" stroke-miterlimit="3"/></g></svg>