<?xml version="1.0" encoding="UTF-8" standalone="no"?><!-- Generator: Gravit.io --><svg xmlns="http://www.w3.org/2000/svg" xmlns:xlink="http://www.w3.org/1999/xlink" style="isolation:isolate" viewBox="0 0 120 40" width="120pt" height="40pt"><defs><clipPath id="_clipPath_axDJY1B7I3kzva9QYTak7mEU0V9D4SmQ"><rect width="120" height="40"/></clipPath></defs><g clip-path="url(#_clipPath_axDJY1B7I3kzva9QYTak7mEU0V9D4SmQ)"><g><path d=" M 112.23 17.213 L 112.23 17.213 C 113.058 17.213 113.73 17.885 113.73 18.713 L 113.73 18.713 C 113.73 19.541 113.058 20.213 112.23 20.213 L 112.23 20.213 L 7.77 20.213 L 6.27 20.213 L 6.27 19.213 C 6.27 18.109 6.942 17.213 7.77 17.213 L 7.77 17.213 L 112.23 17.213 Z " fill="rgb(25,29,50)"/><path d=" M 9.27 31.673 L 9.27 33.173 L 6.27 33.173 L 6.27 31.673 L 6.27 18.713 L 6.27 18.713 C 6.27 17.885 7.166 17.213 8.27 17.213 L 9.27 17.213 L 9.27 18.713 L 9.27 31.673 Z " fill="rgb(25,29,50)"/><path d=" M 113.73 18.673 L 113.73 18.673 C 113.73 19.501 113.058 20.173 112.23 20.173 L 112.23 20.173 C 111.402 20.173 110.73 19.501 110.73 18.673 L 110.73 18.673 L 110.73 5.713 L 110.73 5.713 C 110.73 4.885 111.402 4.213 112.23 4.213 L 112.23 4.213 C 113.058 4.213 113.73 4.885 113.73 5.713 L 113.73 5.713 L 113.73 18.673 Z " fill="rgb(25,29,50)"/><path d=" M 6.772 35.07 L 5.265 32.46 L 3.758 29.85 C 3.206 28.894 3.655 28.118 4.758 28.118 L 7.772 28.118 L 10.786 28.118 C 11.89 28.118 12.338 28.894 11.786 29.85 L 10.279 32.46 L 8.772 35.07 C 8.22 36.026 7.324 36.026 6.772 35.07 Z " fill="rgb(25,29,50)"/></g></g></svg>