<?xml version="1.0" encoding="UTF-8" standalone="no"?><!-- Generator: Gravit.io --><svg xmlns="http://www.w3.org/2000/svg" xmlns:xlink="http://www.w3.org/1999/xlink" style="isolation:isolate" viewBox="0 0 120 120" width="120pt" height="120pt"><defs><clipPath id="_clipPath_oz9V8cIa4pnXWspMgIMlQREswVcd84Vp"><rect width="120" height="120"/></clipPath></defs><g clip-path="url(#_clipPath_oz9V8cIa4pnXWspMgIMlQREswVcd84Vp)"><path d="M 12 0 L 108 0 C 114.623 0 120 5.377 120 12 L 120 108 C 120 114.623 114.623 120 108 120 L 12 120 C 5.377 120 0 114.623 0 108 L 0 12 C 0 5.377 5.377 0 12 0 Z" style="stroke:none;fill:#EAD2AC;stroke-miterlimit:10;"/><path d=" M 63.613 71.865 L 50.674 71.865 L 50.674 68.252 L 50.674 68.252 Q 50.674 63.564 52.676 60.098 L 52.676 60.098 L 52.676 60.098 Q 54.678 56.631 60 52.725 L 60 52.725 L 60 52.725 Q 65.127 49.063 66.763 46.768 L 66.763 46.768 L 66.763 46.768 Q 68.398 44.473 68.398 41.641 L 68.398 41.641 L 68.398 41.641 Q 68.398 38.467 66.055 36.807 L 66.055 36.807 L 66.055 36.807 Q 63.711 35.146 59.512 35.146 L 59.512 35.146 L 59.512 35.146 Q 52.188 35.146 42.813 39.932 L 42.813 39.932 L 37.49 29.238 L 37.49 29.238 Q 48.379 23.135 60.586 23.135 L 60.586 23.135 L 60.586 23.135 Q 70.645 23.135 76.577 27.969 L 76.577 27.969 L 76.577 27.969 Q 82.51 32.803 82.51 40.859 L 82.51 40.859 L 82.51 40.859 Q 82.51 46.23 80.068 50.137 L 80.068 50.137 L 80.068 50.137 Q 77.627 54.043 70.791 58.926 L 70.791 58.926 L 70.791 58.926 Q 66.104 62.393 64.858 64.199 L 64.858 64.199 L 64.858 64.199 Q 63.613 66.006 63.613 68.936 L 63.613 68.936 L 63.613 71.865 Z  M 49.111 88.564 L 49.111 88.564 L 49.111 88.564 Q 49.111 84.463 51.309 82.363 L 51.309 82.363 L 51.309 82.363 Q 53.506 80.264 57.705 80.264 L 57.705 80.264 L 57.705 80.264 Q 61.758 80.264 63.979 82.412 L 63.979 82.412 L 63.979 82.412 Q 66.201 84.561 66.201 88.564 L 66.201 88.564 L 66.201 88.564 Q 66.201 92.422 63.955 94.644 L 63.955 94.644 L 63.955 94.644 Q 61.709 96.865 57.705 96.865 L 57.705 96.865 L 57.705 96.865 Q 53.604 96.865 51.357 94.692 L 51.357 94.692 L 51.357 94.692 Q 49.111 92.52 49.111 88.564 Z " fill="rgb(255,255,255)"/></g></svg>