<?xml version="1.0" encoding="UTF-8" standalone="no"?><!-- Generator: Gravit.io --><svg xmlns="http://www.w3.org/2000/svg" xmlns:xlink="http://www.w3.org/1999/xlink" style="isolation:isolate" viewBox="0 0 120 120" width="120pt" height="120pt"><defs><clipPath id="_clipPath_yLJjKjKrYHTmeLklAisaZnkFtSFLcnwC"><rect width="120" height="120"/></clipPath></defs><g clip-path="url(#_clipPath_yLJjKjKrYHTmeLklAisaZnkFtSFLcnwC)"><path d=" M 60 120 C 26.885 120 0 93.115 0 60 C 0 26.885 26.885 0 60 0 C 93.115 0 120 26.885 120 60 C 120 93.115 93.115 120 60 120 Z " fill="rgb(223,146,142)"/><path d=" M 70.779 0.967 C 95.26 5.416 114.584 24.74 119.033 49.221 L 70.8 49.2 L 70.779 0.967 Z " fill="rgb(234,210,172)"/><path d=" M 119.033 70.8 C 114.584 95.281 95.26 114.605 70.779 119.053 L 70.8 70.821 L 119.033 70.8 Z " fill="rgb(234,210,172)"/><path d=" M 49.213 119.053 C 24.732 114.605 5.408 95.281 0.96 70.8 L 49.193 70.821 L 49.213 119.053 Z " fill="rgb(234,210,172)"/><path d=" M 0.96 49.221 C 5.408 24.74 24.732 5.416 49.213 0.967 L 49.193 49.2 L 0.96 49.221 Z " fill="rgb(234,210,172)"/></g></svg>