<?xml version="1.0" encoding="UTF-8" standalone="no"?><!-- Generator: Gravit.io --><svg xmlns="http://www.w3.org/2000/svg" xmlns:xlink="http://www.w3.org/1999/xlink" style="isolation:isolate" viewBox="0 0 200 200" width="200pt" height="200pt"><defs><clipPath id="_clipPath_eqVSTLVsmBwzj6npAfml57CGneozdd8l"><rect width="200" height="200"/></clipPath></defs><g clip-path="url(#_clipPath_eqVSTLVsmBwzj6npAfml57CGneozdd8l)"><path d=" M 199.385 75.324 C 197.651 70.324 193.202 66.663 187.845 65.869 L 135.74 58.121 L 113.092 11.098 C 110.708 6.16 105.607 3 100 3 C 94.393 3 89.293 6.16 86.908 11.098 L 64.26 58.121 L 12.149 65.869 C 6.799 66.663 2.349 70.324 0.622 75.324 C -1.099 80.337 0.203 85.857 3.983 89.624 L 42.169 127.748 L 33.314 180.635 C 32.413 185.961 34.722 191.305 39.247 194.422 C 41.731 196.13 44.654 197 47.576 197 C 49.979 197 52.389 196.412 54.573 195.241 L 100 170.785 L 145.434 195.241 C 147.618 196.412 150.027 197 152.424 197 C 155.347 197 158.269 196.13 160.76 194.422 C 165.284 191.305 167.581 185.961 166.686 180.635 L 157.825 127.748 L 196.024 89.624 C 199.798 85.851 201.093 80.331 199.385 75.324 Z " fill="rgb(255,153,0)"/><path d=" M 147.486 117.917 C 144.282 121.108 142.83 125.608 143.563 130.02 L 152.424 182.907 L 106.99 158.463 C 104.813 157.286 102.41 156.704 99.994 156.704 C 97.591 156.704 95.181 157.293 93.004 158.463 L 47.57 182.907 L 56.432 130.02 C 57.17 125.608 55.718 121.108 52.514 117.917 L 14.327 79.793 L 66.432 72.033 C 71.194 71.326 75.293 68.347 77.34 64.097 L 100 17.087 L 122.654 64.104 C 124.707 68.353 128.8 71.326 133.556 72.039 L 185.673 79.799 L 147.486 117.917 Z " fill="rgb(255,255,255)"/></g></svg>